<svg width="25" height="24" viewBox="0 0 25 24" fill="none" xmlns="http://www.w3.org/2000/svg">
<path d="M9.125 22H15.125C20.125 22 22.125 20 22.125 15V9C22.125 4 20.125 2 15.125 2H9.125C4.125 2 2.125 4 2.125 9V15C2.125 20 4.125 22 9.125 22Z" stroke="#627286" stroke-width="1.5" stroke-linecap="round" stroke-linejoin="round"/>
<path d="M15.625 18.5C16.725 18.5 17.625 17.6 17.625 16.5V7.5C17.625 6.4 16.725 5.5 15.625 5.5C14.525 5.5 13.625 6.4 13.625 7.5V16.5C13.625 17.6 14.515 18.5 15.625 18.5Z" stroke="#627286" stroke-width="1.5" stroke-linecap="round" stroke-linejoin="round"/>
<path d="M8.625 18.5C9.725 18.5 10.625 17.6 10.625 16.5V13C10.625 11.9 9.725 11 8.625 11C7.525 11 6.625 11.9 6.625 13V16.5C6.625 17.6 7.515 18.5 8.625 18.5Z" stroke="#627286" stroke-width="1.5" stroke-linecap="round" stroke-linejoin="round"/>
</svg>
