<svg width="25" height="24" viewBox="0 0 25 24" fill="none" xmlns="http://www.w3.org/2000/svg">
<path d="M12.785 10.87C12.685 10.86 12.565 10.86 12.455 10.87C10.075 10.79 8.185 8.84 8.185 6.44C8.185 3.99 10.165 2 12.625 2C15.075 2 17.065 3.99 17.065 6.44C17.055 8.84 15.165 10.79 12.785 10.87Z" stroke="#627286" stroke-width="1.5" stroke-linecap="round" stroke-linejoin="round"/>
<path d="M7.785 14.56C5.365 16.18 5.365 18.82 7.785 20.43C10.535 22.27 15.045 22.27 17.795 20.43C20.215 18.81 20.215 16.17 17.795 14.56C15.055 12.73 10.545 12.73 7.785 14.56Z" stroke="#627286" stroke-width="1.5" stroke-linecap="round" stroke-linejoin="round"/>
</svg>
