<svg width="145" height="56" viewBox="0 0 145 56" fill="none" xmlns="http://www.w3.org/2000/svg">
<g clip-path="url(#clip0_8_8742)">
<rect x="0.5" y="9" width="56" height="39" rx="8" fill="#EAEAEA"/>
<path d="M0.5 17C0.5 12.5817 4.08172 9 8.5 9H48.5C52.9183 9 56.5 12.5817 56.5 17V23H0.5V17Z" fill="#CACACA"/>
</g>
<rect x="64.5" y="27" width="24" height="2" rx="1" fill="#DFDFDF"/>
<rect x="100" y="7" width="42" height="42" rx="21" fill="#FFF9D8"/>
<rect x="100" y="7" width="42" height="42" rx="21" stroke="#E0BF00" stroke-width="2"/>
<path d="M121.972 30.1648H112.963V27.9318H121.938C122.71 27.9318 123.349 27.804 123.855 27.5483C124.361 27.2869 124.736 26.929 124.98 26.4744C125.224 26.0142 125.347 25.4858 125.347 24.8892C125.347 24.2983 125.224 23.7699 124.98 23.304C124.736 22.8381 124.364 22.4716 123.864 22.2045C123.364 21.9318 122.733 21.7955 121.972 21.7955H118.256V37H115.631V19.5455H121.972C123.295 19.5455 124.401 19.7841 125.287 20.2614C126.179 20.7386 126.847 21.3807 127.29 22.1875C127.739 22.9943 127.963 23.892 127.963 24.8807C127.963 25.8807 127.736 26.7812 127.281 27.5824C126.832 28.3778 126.162 29.0085 125.27 29.4744C124.384 29.9347 123.284 30.1648 121.972 30.1648ZM122.099 31.6307V33.8722H112.963V31.6307H122.099Z" fill="#E0BF00"/>
<defs>
<clipPath id="clip0_8_8742">
<rect width="56" height="56" fill="white" transform="translate(0.5)"/>
</clipPath>
</defs>
</svg>
